# xmcd CD database file
#
# Track frame offsets:
#	150
#	17815
#	32764
#	48205
#	64520
#	84528
#	100280
#	118467
#	135418
#	151266
#	166296
#	187811
#
# Disc length: 2725 seconds
#
# Revision: 0
# Processed by: cddbd v1.5.1PL0 Copyright (c) Steve Scherf et al.
# Submitted via: CDex 1.51
#
DISCID=920aa30c
DTITLE=Not By Choice - Secondhand Opinions
DYEAR=2004
DGENRE=Punk
TTITLE0=Out Of Reach (Too Far Gone)
TTITLE1=Home
TTITLE2=Call Out
TTITLE3=Days Go By
TTITLE4=So Close
TTITLE5=Tongue Tied
TTITLE6=Save Yourself
TTITLE7=Never Say Goodbye
TTITLE8=Here With Me
TTITLE9=Wake Up
TTITLE10=Echoes
TTITLE11=Things Will Never Be The Same
EXTD=YEAR: 2004
EXTT0=
EXTT1=
EXTT2=
EXTT3=
EXTT4=
EXTT5=
EXTT6=
EXTT7=
EXTT8=
EXTT9=
EXTT10=
EXTT11=
PLAYORDER=
